<svg width="16" height="15" viewBox="0 0 16 15" fill="none" xmlns="http://www.w3.org/2000/svg">
<path fill-rule="evenodd" clip-rule="evenodd" d="M8.00005 14.41C9.90961 14.41 11.741 13.6514 13.0912 12.3012C14.4415 10.9509 15.2 9.11957 15.2 7.21001C15.2 5.30045 14.4415 3.4691 13.0912 2.11884C11.741 0.768579 9.90961 0.0100098 8.00005 0.0100098C6.09049 0.0100098 4.25914 0.768579 2.90888 2.11884C1.55862 3.4691 0.800049 5.30045 0.800049 7.21001C0.800049 9.11957 1.55862 10.9509 2.90888 12.3012C4.25914 13.6514 6.09049 14.41 8.00005 14.41ZM7.10005 5.41001V3.61001H8.90005V5.41001H7.10005ZM7.10005 10.81V6.31001H8.90005V10.81H7.10005Z" fill="#ADADB8"/>
</svg>
