<svg width="21" height="20" viewBox="0 0 21 20" fill="none" xmlns="http://www.w3.org/2000/svg">
<path fill-rule="evenodd" clip-rule="evenodd" d="M10.41 5.89209C9.87053 5.89209 9.33634 5.99835 8.83794 6.20479C8.33953 6.41124 7.88667 6.71383 7.50521 7.09529C7.12374 7.47676 6.82115 7.92962 6.61471 8.42803C6.40826 8.92643 6.302 9.46062 6.302 10.0001C6.302 10.5396 6.40826 11.0737 6.61471 11.5722C6.82115 12.0706 7.12374 12.5234 7.50521 12.9049C7.88667 13.2863 8.33953 13.5889 8.83794 13.7954C9.33634 14.0018 9.87053 14.1081 10.41 14.1081C11.4995 14.1081 12.5444 13.6753 13.3148 12.9049C14.0852 12.1345 14.518 11.0896 14.518 10.0001C14.518 8.91058 14.0852 7.86569 13.3148 7.09529C12.5444 6.3249 11.4995 5.89209 10.41 5.89209ZM10.41 12.6661C10.0555 12.673 9.70316 12.6091 9.37364 12.4781C9.04411 12.3472 8.744 12.1519 8.49085 11.9036C8.23771 11.6553 8.03662 11.3591 7.89934 11.0321C7.76207 10.7052 7.69136 10.3542 7.69136 9.99959C7.69136 9.64501 7.76207 9.29399 7.89934 8.96706C8.03662 8.64013 8.23771 8.34385 8.49085 8.09557C8.744 7.84728 9.04411 7.65196 9.37364 7.52104C9.70316 7.39012 10.0555 7.32622 10.41 7.33309C11.1083 7.34661 11.7734 7.63349 12.2624 8.13208C12.7514 8.63068 13.0254 9.3012 13.0254 9.99959C13.0254 10.698 12.7514 11.3685 12.2624 11.8671C11.7734 12.3657 11.1083 12.6526 10.41 12.6661Z" fill="white"/>
<path d="M15.6401 5.73002C15.6401 5.98463 15.539 6.22881 15.3589 6.40884C15.1789 6.58888 14.9347 6.69002 14.6801 6.69002C14.4255 6.69002 14.1813 6.58888 14.0013 6.40884C13.8212 6.22881 13.7201 5.98463 13.7201 5.73002C13.7201 5.47541 13.8212 5.23123 14.0013 5.0512C14.1813 4.87116 14.4255 4.77002 14.6801 4.77002C14.9347 4.77002 15.1789 4.87116 15.3589 5.0512C15.539 5.23123 15.6401 5.47541 15.6401 5.73002Z" fill="black"/>
<path fill-rule="evenodd" clip-rule="evenodd" d="M10.41 2C8.23703 2 7.96503 2.01 7.11103 2.048C6.26003 2.087 5.67903 2.222 5.17003 2.42C4.63614 2.62085 4.15255 2.93585 3.75303 3.343C3.30803 3.788 3.03403 4.233 2.83003 4.76C2.63203 5.269 2.49703 5.85 2.45803 6.701C2.42003 7.555 2.41003 7.827 2.41003 10C2.41003 12.173 2.42003 12.445 2.45803 13.298C2.49703 14.15 2.63203 14.731 2.83003 15.24C3.03503 15.766 3.30803 16.212 3.75303 16.657C4.19803 17.102 4.64303 17.375 5.17003 17.58C5.67903 17.778 6.26003 17.913 7.11203 17.952C7.96503 17.99 8.23703 18 10.41 18C12.583 18 12.855 17.99 13.708 17.952C14.56 17.913 15.142 17.778 15.65 17.58C16.1839 17.3792 16.6675 17.0641 17.067 16.657C17.4741 16.2574 17.7891 15.7739 17.99 15.24C18.188 14.731 18.323 14.15 18.362 13.298C18.401 12.445 18.41 12.173 18.41 10C18.41 7.827 18.4 7.555 18.362 6.701C18.323 5.85 18.188 5.268 17.99 4.76C17.7892 4.22611 17.4742 3.74251 17.067 3.343C16.6675 2.9359 16.1839 2.62091 15.65 2.42C15.14 2.222 14.56 2.087 13.708 2.048C12.855 2.01 12.582 2 10.41 2ZM10.41 3.441C12.546 3.441 12.799 3.45 13.642 3.488C14.422 3.524 14.846 3.654 15.128 3.763C15.501 3.909 15.768 4.082 16.048 4.362C16.328 4.642 16.501 4.908 16.646 5.282C16.756 5.564 16.886 5.987 16.921 6.767C16.96 7.611 16.968 7.864 16.968 10C16.968 12.136 16.96 12.389 16.921 13.232C16.886 14.012 16.756 14.436 16.646 14.718C16.501 15.091 16.327 15.358 16.048 15.638C15.768 15.918 15.501 16.092 15.128 16.236C14.846 16.346 14.422 16.476 13.642 16.512C12.799 16.55 12.546 16.558 10.41 16.558C8.27403 16.558 8.02003 16.55 7.17703 16.512C6.39703 16.476 5.97403 16.346 5.69203 16.236C5.34458 16.1078 5.03023 15.9035 4.77203 15.638C4.50599 15.3801 4.30128 15.0657 4.17303 14.718C4.06303 14.436 3.93303 14.012 3.89803 13.232C3.86003 12.389 3.85103 12.136 3.85103 10C3.85103 7.864 3.86003 7.61 3.89803 6.767C3.93403 5.987 4.06403 5.564 4.17303 5.282C4.31803 4.908 4.49203 4.642 4.77203 4.362C5.05203 4.082 5.31803 3.908 5.69203 3.763C5.97403 3.653 6.39703 3.523 7.17703 3.488C8.02103 3.45 8.27403 3.441 10.41 3.441Z" fill="white"/>
</svg>
