<svg width="16" height="14" viewBox="0 0 16 14" fill="none" xmlns="http://www.w3.org/2000/svg">
<path fill-rule="evenodd" clip-rule="evenodd" d="M7.171 1.171C6.42087 0.421169 5.40364 -3.86745e-05 4.343 2.66339e-09H4C2.93913 2.66339e-09 1.92172 0.421427 1.17157 1.17157C0.421427 1.92172 2.6579e-09 2.93913 2.6579e-09 4V4.343C-1.91503e-05 4.86841 0.103475 5.38868 0.304569 5.87409C0.505664 6.3595 0.80042 6.80053 1.172 7.172L8 14L14.828 7.172C15.1996 6.80053 15.4943 6.3595 15.6954 5.87409C15.8965 5.38868 16 4.86841 16 4.343V4C16 2.93913 15.5786 1.92172 14.8284 1.17157C14.0783 0.421427 13.0609 2.66339e-09 12 2.66339e-09H11.657C11.1316 -1.91503e-05 10.6113 0.103475 10.1259 0.304569C9.6405 0.505664 9.19947 0.80042 8.828 1.172L8 2L7.171 1.171ZM8 11.171L13.414 5.757C13.7891 5.38201 13.9999 4.87339 14 4.343V4C14 3.46957 13.7893 2.96086 13.4142 2.58579C13.0391 2.21071 12.5304 2 12 2H11.657C11.1266 2.00011 10.618 2.2109 10.243 2.586L8 4.828L5.757 2.586C5.38201 2.2109 4.87339 2.00011 4.343 2H4C3.46957 2 2.96086 2.21071 2.58579 2.58579C2.21071 2.96086 2 3.46957 2 4V4.343C2.00011 4.87339 2.2109 5.38201 2.586 5.757L8 11.172V11.171Z" fill="white"/>
</svg>
