<svg width="17" height="16" viewBox="0 0 17 16" fill="none" xmlns="http://www.w3.org/2000/svg">
<path fill-rule="evenodd" clip-rule="evenodd" d="M5.33655 1.55205e-06C4.36369 -0.000855017 3.42387 0.352868 2.693 0.994958C1.96213 1.63705 1.49032 2.52349 1.36588 3.48835C1.24144 4.45322 1.47291 5.43036 2.01695 6.23688C2.56099 7.0434 3.38031 7.624 4.32155 7.87C4.22355 8.51 3.67055 9 3.00355 9C2.29622 9 1.61785 9.28099 1.11769 9.78115C0.617535 10.2813 0.336548 10.9597 0.336548 11.667V16H2.33655V11.667C2.33655 11.299 2.63455 11 3.00355 11C3.91155 11 4.73555 10.637 5.33655 10.047C5.93755 10.637 6.76155 11 7.66955 11C8.03855 11 8.33655 11.299 8.33655 11.667V16H10.3365V11.667C10.3365 10.9597 10.0556 10.2813 9.5554 9.78115C9.05524 9.28099 8.37688 9 7.66955 9C7.00255 9 6.44955 8.51 6.35155 7.87C7.28974 7.62093 8.10544 7.03937 8.64672 6.2336C9.188 5.42783 9.41798 4.4528 9.29381 3.49008C9.16965 2.52736 8.69981 1.64259 7.9718 1.00052C7.24379 0.358459 6.30724 0.00287852 5.33655 1.55205e-06ZM3.33655 4C3.33655 4.53043 3.54726 5.03914 3.92233 5.41422C4.29741 5.78929 4.80611 6 5.33655 6C5.86698 6 6.37569 5.78929 6.75076 5.41422C7.12583 5.03914 7.33655 4.53043 7.33655 4C7.33655 3.46957 7.12583 2.96086 6.75076 2.58579C6.37569 2.21072 5.86698 2 5.33655 2C4.80611 2 4.29741 2.21072 3.92233 2.58579C3.54726 2.96086 3.33655 3.46957 3.33655 4Z" fill="#EFEFF1"/>
<path d="M12.3366 9.83V16H16.3366V12.25C16.3366 11.56 15.7766 11 15.0866 11C14.8877 11 14.6969 10.921 14.5562 10.7803C14.4156 10.6397 14.3366 10.4489 14.3366 10.25V9.83C15.0041 9.59409 15.5667 9.1298 15.9249 8.51919C16.2832 7.90858 16.4141 7.19098 16.2944 6.49321C16.1747 5.79545 15.8122 5.16246 15.2709 4.70613C14.7297 4.2498 14.0445 3.99951 13.3366 3.99951C12.6286 3.99951 11.9435 4.2498 11.4022 4.70613C10.8609 5.16246 10.4984 5.79545 10.3788 6.49321C10.2591 7.19098 10.39 7.90858 10.7482 8.51919C11.1065 9.1298 11.6691 9.59409 12.3366 9.83Z" fill="#EFEFF1"/>
</svg>
