<svg width="20" height="21" viewBox="0 0 20 21" fill="none" xmlns="http://www.w3.org/2000/svg">
<path d="M7 11.96C7.26522 11.96 7.51957 11.8546 7.70711 11.6671C7.89464 11.4795 8 11.2252 8 10.96C8 10.6947 7.89464 10.4404 7.70711 10.2529C7.51957 10.0653 7.26522 9.95996 7 9.95996C6.73478 9.95996 6.48043 10.0653 6.29289 10.2529C6.10536 10.4404 6 10.6947 6 10.96C6 11.2252 6.10536 11.4795 6.29289 11.6671C6.48043 11.8546 6.73478 11.96 7 11.96ZM14 10.96C14 11.2252 13.8946 11.4795 13.7071 11.6671C13.5196 11.8546 13.2652 11.96 13 11.96C12.7348 11.96 12.4804 11.8546 12.2929 11.6671C12.1054 11.4795 12 11.2252 12 10.96C12 10.6947 12.1054 10.4404 12.2929 10.2529C12.4804 10.0653 12.7348 9.95996 13 9.95996C13.2652 9.95996 13.5196 10.0653 13.7071 10.2529C13.8946 10.4404 14 10.6947 14 10.96ZM10 14.96C10.5304 14.96 11.0391 14.7492 11.4142 14.3742C11.7893 13.9991 12 13.4904 12 12.96H8C8 13.4904 8.21071 13.9991 8.58579 14.3742C8.96086 14.7492 9.46957 14.96 10 14.96Z" fill="#EFEFF1"/>
<path fill-rule="evenodd" clip-rule="evenodd" d="M18 10.96C18 13.0817 17.1571 15.1165 15.6569 16.6168C14.1566 18.1171 12.1217 18.96 10 18.96C7.87827 18.96 5.84344 18.1171 4.34315 16.6168C2.84285 15.1165 2 13.0817 2 10.96C2 8.83823 2.84285 6.8034 4.34315 5.30311C5.84344 3.80282 7.87827 2.95996 10 2.95996C12.1217 2.95996 14.1566 3.80282 15.6569 5.30311C17.1571 6.8034 18 8.83823 18 10.96ZM16 10.96C16 12.5513 15.3679 14.0774 14.2426 15.2026C13.1174 16.3278 11.5913 16.96 10 16.96C8.4087 16.96 6.88258 16.3278 5.75736 15.2026C4.63214 14.0774 4 12.5513 4 10.96C4 9.36866 4.63214 7.84254 5.75736 6.71732C6.88258 5.5921 8.4087 4.95996 10 4.95996C11.5913 4.95996 13.1174 5.5921 14.2426 6.71732C15.3679 7.84254 16 9.36866 16 10.96Z" fill="#EFEFF1"/>
</svg>
