<svg width="17" height="16" viewBox="0 0 17 16" fill="none" xmlns="http://www.w3.org/2000/svg">
<path fill-rule="evenodd" clip-rule="evenodd" d="M9.82595 6.255L8.36995 3.125L6.91395 6.255L3.42395 6.74L5.97595 9.256L5.35995 12.741L8.36995 11.064L11.38 12.741L10.764 9.256L13.317 6.74L9.82595 6.255ZM5.55995 4.424L1.35995 5.007C0.427955 5.137 0.0419545 6.216 0.695954 6.86L3.82395 9.943L3.06895 14.215C2.90595 15.135 3.94495 15.818 4.79095 15.347L8.36995 13.354L11.949 15.347C12.795 15.817 13.834 15.135 13.671 14.215L12.916 9.943L16.044 6.86C16.698 6.216 16.312 5.137 15.38 5.007L11.18 4.424L9.42595 0.654C9.01995 -0.218 7.71995 -0.218 7.31395 0.654L5.55995 4.424Z" fill="white"/>
</svg>
