<svg width="21" height="20" viewBox="0 0 21 20" fill="none" xmlns="http://www.w3.org/2000/svg">
<path d="M17.309 8.473C16.5363 8.54464 15.7587 8.40451 15.0597 8.06767C14.3606 7.73082 13.7665 7.20996 13.341 6.561V13.139C13.3408 14.1004 13.0555 15.0402 12.5212 15.8395C11.9869 16.6387 11.2276 17.2616 10.3393 17.6294C9.45101 17.9971 8.47361 18.0932 7.53071 17.9054C6.5878 17.7176 5.72175 17.2545 5.04207 16.5745C4.36238 15.8946 3.8996 15.0283 3.71223 14.0854C3.52486 13.1424 3.62132 12.165 3.98943 11.2769C4.35753 10.3887 4.98073 9.62964 5.78023 9.09567C6.57972 8.5617 7.51961 8.2768 8.48102 8.277C8.58302 8.277 8.68302 8.287 8.78202 8.292V10.688C8.68202 10.676 8.58402 10.657 8.48202 10.657C7.82415 10.657 7.19323 10.9183 6.72804 11.3835C6.26286 11.8487 6.00152 12.4796 6.00152 13.1375C6.00152 13.7954 6.26286 14.4263 6.72804 14.8915C7.19323 15.3567 7.82415 15.618 8.48202 15.618C9.85202 15.618 11.062 14.538 11.062 13.168L11.086 2H13.377C13.482 2.9957 13.9336 3.92281 14.6529 4.61926C15.3722 5.31571 16.3135 5.73719 17.312 5.81V8.473" fill="white"/>
</svg>
