<svg width="20" height="20" viewBox="0 0 20 20" fill="none" xmlns="http://www.w3.org/2000/svg">
<path fill-rule="evenodd" clip-rule="evenodd" d="M8.16 12.6759V7.32294L12.863 9.99994L8.16 12.6759ZM18.624 5.63894C18.5225 5.25574 18.3219 4.906 18.0425 4.62481C17.763 4.34362 17.4146 4.14088 17.032 4.03694C15.628 3.65894 10 3.65894 10 3.65894C10 3.65894 4.372 3.65894 2.968 4.03694C2.58568 4.14113 2.23746 4.34397 1.95822 4.62513C1.67899 4.90629 1.47855 5.25591 1.377 5.63894C1 7.05194 1 9.99894 1 9.99894C1 9.99894 1 12.9469 1.377 14.3589C1.584 15.1389 2.194 15.7529 2.967 15.9619C4.372 16.3419 10 16.3419 10 16.3419C10 16.3419 15.628 16.3419 17.032 15.9619C17.4145 15.8578 17.7628 15.655 18.0422 15.3738C18.3217 15.0927 18.5223 14.743 18.624 14.3599C19 12.9469 19 9.99994 19 9.99994C19 9.99994 19 7.05194 18.624 5.63894Z" fill="white"/>
</svg>
